<?xml version="1.0" encoding="UTF-8" standalone="no"?>
<!DOCTYPE svg PUBLIC "-//W3C//DTD SVG 1.1//EN" "http://www.w3.org/Graphics/SVG/1.1/DTD/svg11.dtd">
<svg version="1.1" xmlns="http://www.w3.org/2000/svg" xmlns:xlink="http://www.w3.org/1999/xlink" preserveAspectRatio="xMidYMid meet" viewBox="-1 -0.9999999999999982 184.02999999999997 69" width="180.03" height="65"><defs><path d="M95.45 8.4L95.45 22.23L108.33 15.86L95.45 8.4Z" id="fIRg4T7H0"></path><path d="M92.01 39.31L91.98 40.37L91.92 41.41L91.82 42.45L91.67 43.47L91.48 44.48L91.26 45.48L90.99 46.46L90.69 47.42L90.36 48.37L89.98 49.3L89.58 50.21L89.13 51.11L88.66 51.98L88.15 52.83L87.61 53.66L87.04 54.47L86.44 55.26L85.81 56.02L85.16 56.76L84.47 57.47L83.76 58.15L83.02 58.81L82.26 59.44L81.47 60.04L80.67 60.61L79.83 61.15L78.98 61.65L78.11 62.13L77.21 62.57L76.3 62.98L75.37 63.35L74.42 63.69L73.46 63.99L72.48 64.25L71.48 64.48L70.47 64.66L69.45 64.81L68.41 64.91L67.36 64.98L66.31 65L65.39 64.98L64.48 64.94L63.58 64.86L62.69 64.75L61.81 64.61L60.94 64.44L60.08 64.24L59.23 64.01L58.39 63.75L57.56 63.47L56.75 63.16L55.95 62.82L55.17 62.46L54.4 62.07L53.64 61.66L52.9 61.22L52.18 60.76L51.47 60.27L50.78 59.76L50.11 59.23L49.45 58.68L48.82 58.11L48.2 57.52L47.6 56.91L47.03 56.27L46.47 55.62L45.94 54.95L45.43 54.27L44.94 53.56L44.48 52.84L44.03 52.1L43.62 51.35L43.22 50.58L42.86 49.8L42.51 49L42.2 48.19L41.91 47.37L41.65 46.53L41.42 45.69L41.21 44.83L12.12 44.83L12.29 45.23L12.47 45.62L12.67 46.01L12.87 46.38L13.08 46.76L13.31 47.12L13.54 47.48L13.79 47.83L14.04 48.18L14.31 48.51L14.58 48.84L14.86 49.16L15.15 49.47L15.45 49.78L15.76 50.07L16.08 50.36L16.41 50.63L16.74 50.9L17.08 51.16L17.43 51.4L17.79 51.64L18.15 51.87L18.52 52.08L18.9 52.29L19.29 52.48L19.68 52.67L20.07 52.84L20.48 53L20.88 53.15L21.3 53.29L21.72 53.41L22.14 53.53L22.57 53.63L23.01 53.72L23.44 53.79L23.89 53.85L24.33 53.9L24.78 53.93L25.24 53.96L25.7 53.96L25.9 53.96L26.11 53.96L26.31 53.95L26.52 53.94L26.72 53.93L26.92 53.91L27.12 53.89L27.32 53.87L27.52 53.85L27.72 53.82L27.92 53.79L28.11 53.76L28.31 53.73L28.51 53.69L28.7 53.65L28.89 53.61L29.09 53.57L29.28 53.52L29.47 53.47L29.66 53.42L29.85 53.36L30.03 53.31L30.22 53.25L30.4 53.19L30.59 53.12L30.77 53.06L30.95 52.99L31.13 52.92L31.31 52.84L31.49 52.77L31.67 52.69L31.85 52.61L32.02 52.53L32.19 52.44L32.37 52.35L32.54 52.27L32.71 52.17L32.88 52.08L33.04 51.99L33.21 51.89L38.69 61.46L38.41 61.63L38.12 61.79L37.82 61.95L37.53 62.1L37.23 62.26L36.94 62.4L36.63 62.55L36.33 62.69L36.03 62.83L35.72 62.96L35.41 63.09L35.1 63.21L34.79 63.34L34.47 63.45L34.15 63.57L33.84 63.68L33.52 63.78L33.19 63.88L32.87 63.98L32.54 64.07L32.21 64.16L31.88 64.24L31.55 64.32L31.22 64.4L30.89 64.47L30.55 64.54L30.21 64.6L29.87 64.66L29.53 64.71L29.19 64.76L28.85 64.81L28.5 64.85L28.16 64.88L27.81 64.91L27.46 64.94L27.11 64.96L26.76 64.98L26.41 64.99L26.05 65L25.7 65L24.64 64.98L23.59 64.91L22.56 64.81L21.53 64.66L20.52 64.48L19.53 64.25L18.55 63.99L17.58 63.69L16.64 63.35L15.7 62.98L14.79 62.57L13.9 62.13L13.02 61.65L12.17 61.15L11.34 60.61L10.53 60.04L9.74 59.44L8.98 58.81L8.25 58.15L7.54 57.47L6.85 56.76L6.19 56.02L5.56 55.26L4.96 54.47L4.39 53.66L3.86 52.83L3.35 51.98L2.87 51.11L2.43 50.21L2.02 49.3L1.65 48.37L1.31 47.42L1.01 46.46L0.75 45.48L0.52 44.48L0.34 43.47L0.19 42.45L0.09 41.41L0.02 40.37L0 39.31L0 38.89L0.01 38.48L0.03 38.07L0.05 37.66L0.08 37.25L0.12 36.85L0.16 36.44L0.21 36.04L0.26 35.64L0.32 35.24L0.39 34.84L0.46 34.45L0.54 34.06L0.63 33.67L0.72 33.28L0.81 32.89L0.92 32.51L1.02 32.13L1.14 31.75L1.26 31.37L1.38 31L1.51 30.63L1.65 30.26L1.79 29.9L1.94 29.53L2.09 29.17L2.25 28.81L2.41 28.46L2.58 28.11L2.75 27.76L2.93 27.41L3.12 27.07L3.3 26.73L3.5 26.39L3.7 26.06L3.9 25.73L4.11 25.4L4.32 25.08L4.54 24.76L4.76 24.44L5.12 23.96L5.48 23.48L5.86 23.01L6.25 22.55L6.64 22.1L7.05 21.66L7.47 21.23L7.9 20.81L8.34 20.39L8.78 19.99L9.24 19.6L9.71 19.22L10.18 18.85L10.67 18.49L11.16 18.14L11.66 17.81L12.17 17.48L12.68 17.17L13.21 16.87L13.74 16.58L14.28 16.3L14.83 16.04L15.38 15.78L15.94 15.55L16.51 15.32L17.08 15.11L17.66 14.91L18.25 14.72L18.84 14.55L19.44 14.39L20.04 14.25L20.65 14.12L21.27 14L21.89 13.9L22.51 13.82L23.14 13.75L23.77 13.69L24.41 13.65L25.05 13.63L25.7 13.62L25.73 13.62L25.76 13.62L25.79 13.62L25.82 13.62L25.85 13.62L25.88 13.62L25.91 13.62L25.94 13.62L25.97 13.62L26 13.62L26.03 13.62L26.06 13.62L26.09 13.62L26.12 13.62L26.15 13.63L26.18 13.63L26.21 13.63L26.24 13.63L26.27 13.63L26.3 13.63L26.33 13.63L26.36 13.63L26.39 13.63L26.45 13.63L26.48 13.63L26.51 13.64L26.54 13.64L26.57 13.64L26.6 13.64L26.66 13.64L26.69 13.64L26.72 13.64L26.78 13.65L26.81 13.65L26.87 13.65L26.91 13.65L26.95 13.65L26.98 13.65L27.02 13.66L27.06 13.66L27.15 13.67L27.2 13.67L27.23 13.67L27.25 13.67L27.3 13.67L27.34 13.68L27.37 13.68L27.41 13.68L27.46 13.68L27.51 13.69L27.55 13.69L27.57 13.69L27.62 13.7L27.67 13.7L27.71 13.7L27.76 13.71L27.81 13.71L27.85 13.71L27.88 13.72L27.92 13.72L27.97 13.72L28.01 13.73L28.04 13.73L28.08 13.73L28.13 13.74L28.15 13.74L28.22 13.75L28.29 13.75L28.36 13.76L28.43 13.77L28.76 13.8L29.09 13.84L29.42 13.89L29.75 13.94L30.08 13.99L30.4 14.05L30.73 14.11L31.05 14.18L31.37 14.25L31.7 14.32L32.02 14.4L32.34 14.49L32.65 14.57L32.97 14.66L33.29 14.76L33.6 14.86L33.91 14.96L34.22 15.07L34.53 15.18L34.84 15.29L35.15 15.41L35.46 15.54L35.76 15.66L36.06 15.79L36.36 15.93L36.66 16.07L36.96 16.21L37.26 16.36L37.55 16.51L37.84 16.66L38.14 16.82L38.42 16.99L38.71 17.15L39 17.32L39.28 17.5L39.56 17.68L39.84 17.86L40.12 18.04L40.4 18.23L40.67 18.43L40.78 18.51L40.89 18.59L40.99 18.67L41.1 18.75L41.21 18.83L41.31 18.91L41.42 18.99L41.52 19.07L41.63 19.15L41.73 19.24L41.84 19.32L41.94 19.4L42.04 19.49L42.14 19.57L42.25 19.66L42.35 19.74L42.45 19.83L42.55 19.92L42.65 20.01L42.74 20.09L42.84 20.18L42.94 20.27L43.04 20.36L43.14 20.45L43.23 20.54L43.33 20.63L43.42 20.72L43.52 20.81L43.61 20.91L43.71 21L43.8 21.09L43.89 21.19L43.99 21.28L44.08 21.37L44.17 21.47L44.26 21.56L44.35 21.66L44.44 21.75L44.53 21.85L44.62 21.95L44.62 21.95L44.63 21.96L44.63 21.96L44.64 21.97L44.65 21.98L44.66 21.99L44.67 22L44.67 22.01L44.68 22.01L44.68 22.01L44.69 22.02L44.7 22.03L44.74 22.08L44.79 22.14L44.81 22.16L44.84 22.2L44.88 22.23L44.91 22.27L44.92 22.29L44.94 22.31L44.96 22.32L44.97 22.34L45.01 22.38L45.04 22.42L45.06 22.43L45.07 22.45L45.09 22.47L45.12 22.51L45.15 22.55L45.17 22.56L45.18 22.58L45.2 22.6L45.22 22.62L45.25 22.66L45.28 22.7L45.3 22.71L45.31 22.73L45.33 22.75L45.34 22.77L45.36 22.79L45.39 22.83L45.41 22.85L45.42 22.86L45.44 22.88L45.45 22.89L45.46 22.91L45.47 22.93L45.49 22.94L45.5 22.96L45.52 22.99L45.55 23.01L45.57 23.04L45.6 23.08L45.65 23.15L45.69 23.19L45.72 23.23L45.74 23.25L45.75 23.27L45.76 23.29L45.79 23.31L45.81 23.34L45.86 23.4L45.88 23.43L45.9 23.45L45.92 23.47L45.93 23.49L45.95 23.52L45.97 23.54L45.98 23.55L45.99 23.56L45.99 23.57L46.01 23.59L46.36 23.14L46.73 22.69L47.11 22.26L47.5 21.84L47.89 21.42L48.3 21.01L48.71 20.61L49.13 20.22L49.56 19.84L50 19.47L50.45 19.11L50.91 18.76L51.37 18.42L51.84 18.09L52.32 17.77L52.81 17.46L53.3 17.16L53.8 16.87L54.31 16.6L54.83 16.33L55.35 16.08L55.88 15.83L56.41 15.6L56.95 15.38L57.5 15.18L58.05 14.98L58.61 14.8L59.17 14.63L59.74 14.47L60.32 14.33L60.9 14.19L61.48 14.08L62.07 13.97L62.66 13.88L63.26 13.8L63.86 13.74L64.47 13.69L65.08 13.65L65.69 13.63L66.31 13.62L66.7 13.62L67.1 13.63L67.49 13.65L67.88 13.67L68.28 13.69L68.67 13.73L69.06 13.77L69.45 13.81L69.83 13.86L70.22 13.92L70.6 13.98L70.99 14.04L71.37 14.12L71.75 14.2L72.13 14.28L72.51 14.37L72.88 14.47L73.26 14.57L73.63 14.68L74 14.79L74.37 14.91L74.73 15.03L75.1 15.16L75.46 15.3L75.82 15.44L76.18 15.59L76.54 15.74L76.89 15.9L77.25 16.06L77.6 16.23L77.94 16.4L78.29 16.58L78.63 16.77L78.97 16.96L79.31 17.15L79.65 17.35L79.98 17.56L80.31 17.77L80.64 17.99L80.96 18.21L80.96 0L92.01 6.43L92.01 39.31ZM63.68 24.89L62.42 25.18L61.2 25.58L60.03 26.07L58.92 26.66L57.86 27.34L56.87 28.11L55.95 28.95L55.1 29.88L54.34 30.87L53.65 31.92L53.06 33.03L52.57 34.2L52.18 35.42L51.89 36.68L51.71 37.98L51.65 39.31L51.71 40.64L51.89 41.94L52.18 43.2L52.57 44.42L53.06 45.59L53.65 46.7L54.34 47.75L55.1 48.75L55.95 49.67L56.87 50.51L57.86 51.28L58.92 51.96L60.03 52.55L61.2 53.04L62.42 53.44L63.68 53.73L64.97 53.9L66.31 53.96L67.64 53.9L68.94 53.73L70.2 53.44L71.42 53.04L72.58 52.55L73.7 51.96L74.75 51.28L75.75 50.51L76.67 49.67L77.51 48.75L78.28 47.75L78.96 46.7L79.55 45.59L80.05 44.42L80.44 43.2L80.73 41.94L80.9 40.64L80.96 39.31L80.94 38.53L80.88 37.75L80.78 36.98L80.63 36.22L80.45 35.48L80.23 34.74L79.97 34.02L79.67 33.31L79.34 32.62L78.97 31.95L78.57 31.29L78.13 30.66L77.66 30.05L77.16 29.47L76.63 28.91L76.06 28.37L75.47 27.87L74.84 27.4L74.42 27.1L73.99 26.83L73.56 26.57L73.11 26.33L72.66 26.1L72.21 25.89L71.74 25.7L71.27 25.52L70.8 25.36L70.32 25.21L69.83 25.08L69.34 24.97L68.84 24.87L68.34 24.8L67.84 24.74L67.33 24.69L66.82 24.67L66.31 24.66L64.97 24.72L63.68 24.89ZM25.53 24.66L25.44 24.66L25.36 24.66L25.27 24.67L25.19 24.67L25.1 24.67L25.02 24.68L24.94 24.68L24.85 24.69L24.77 24.69L24.68 24.7L24.66 24.7L24.64 24.7L24.62 24.7L24.6 24.7L24.56 24.71L24.54 24.71L24.52 24.71L24.5 24.71L24.48 24.71L24.46 24.71L24.44 24.72L24.36 24.72L24.28 24.73L24.19 24.74L24.11 24.75L24.03 24.76L23.95 24.76L23.86 24.77L23.78 24.78L23.7 24.79L23.62 24.81L23.53 24.82L23.45 24.83L23.45 24.83L23.43 24.83L23.42 24.84L23.41 24.84L23.33 24.85L23.25 24.86L23.17 24.88L23.1 24.89L23.02 24.91L22.94 24.92L22.86 24.94L22.79 24.95L22.71 24.97L22.63 24.98L22.55 25L22.48 25.02L22.44 25.03L22.42 25.03L22.4 25.04L22.38 25.04L22.36 25.04L22.33 25.05L22.29 25.06L22.25 25.07L22.17 25.09L22.09 25.11L22.02 25.13L21.94 25.15L21.86 25.17L21.78 25.19L21.7 25.21L21.62 25.23L21.55 25.26L21.47 25.28L21.39 25.3L21.31 25.33L21.3 25.33L21.3 25.33L21.28 25.34L21.26 25.35L21.25 25.35L21.24 25.35L21.17 25.38L21.1 25.4L21.03 25.42L20.95 25.45L20.88 25.47L20.81 25.5L20.74 25.52L20.67 25.55L20.6 25.58L20.53 25.6L20.46 25.63L20.39 25.66L20.37 25.66L20.34 25.68L20.32 25.68L20.3 25.69L20.29 25.7L20.25 25.71L20.23 25.72L20.22 25.72L20.2 25.73L20.18 25.74L20.11 25.77L20.03 25.8L19.96 25.83L19.89 25.86L19.81 25.89L19.74 25.93L19.67 25.96L19.6 25.99L19.52 26.02L19.45 26.06L19.38 26.09L19.31 26.13L19.29 26.13L19.23 26.17L19.21 26.18L19.15 26.21L19.08 26.24L19.02 26.27L18.95 26.31L18.89 26.34L18.83 26.37L18.76 26.41L18.7 26.44L18.63 26.48L18.57 26.51L18.51 26.55L18.45 26.58L18.43 26.59L18.37 26.63L18.34 26.65L18.3 26.67L18.27 26.68L18.26 26.69L18.19 26.73L18.12 26.77L18.05 26.82L17.99 26.86L17.92 26.9L17.85 26.94L17.79 26.98L17.72 27.02L17.66 27.07L17.59 27.11L17.52 27.15L17.46 27.2L17.44 27.21L17.43 27.22L17.4 27.24L17.38 27.26L17.37 27.26L17.36 27.27L17.35 27.28L17.29 27.32L17.23 27.36L17.18 27.4L17.12 27.44L17.06 27.48L17.01 27.52L16.95 27.56L16.9 27.61L16.84 27.65L16.78 27.69L16.73 27.73L16.67 27.78L16.65 27.8L16.6 27.83L16.57 27.85L16.56 27.87L16.55 27.88L16.52 27.9L16.5 27.91L16.44 27.96L16.38 28.01L16.32 28.06L16.26 28.11L16.2 28.16L16.14 28.21L16.09 28.26L16.03 28.31L15.97 28.36L15.91 28.41L15.85 28.47L15.79 28.52L15.78 28.53L15.77 28.55L15.75 28.57L15.73 28.58L15.71 28.6L15.68 28.63L15.63 28.68L15.58 28.72L15.53 28.77L15.48 28.82L15.43 28.87L15.38 28.91L15.34 28.96L15.29 29.01L15.24 29.06L15.19 29.11L15.14 29.16L15.1 29.21L15.08 29.22L15.07 29.23L15.05 29.26L15.01 29.3L15 29.31L14.99 29.32L14.97 29.34L14.96 29.35L14.95 29.36L14.9 29.42L14.84 29.48L14.79 29.53L14.74 29.59L14.69 29.65L14.64 29.71L14.59 29.77L14.54 29.83L14.49 29.88L14.44 29.94L14.39 30L14.34 30.06L14.33 30.08L14.31 30.1L14.29 30.12L14.24 30.19L14.23 30.21L14.18 30.26L14.14 30.31L14.1 30.37L14.06 30.42L14.02 30.47L13.98 30.53L13.94 30.58L13.9 30.63L13.86 30.69L13.82 30.74L13.78 30.8L13.74 30.85L13.73 30.87L13.72 30.88L13.71 30.89L13.7 30.91L13.69 30.92L13.66 30.97L13.64 30.99L13.63 31.01L13.62 31.02L13.57 31.09L13.53 31.15L13.49 31.22L13.45 31.28L13.4 31.35L13.36 31.41L13.32 31.48L13.28 31.54L13.24 31.61L13.2 31.67L13.16 31.74L13.12 31.81L13.11 31.82L13.1 31.84L13.09 31.85L13.08 31.86L13.06 31.89L13.05 31.92L13.04 31.94L13.03 31.95L13.02 31.97L13.01 31.98L12.98 32.04L12.95 32.1L12.92 32.15L12.88 32.21L12.85 32.27L12.82 32.33L12.79 32.39L12.75 32.45L12.72 32.51L12.69 32.57L12.66 32.63L12.63 32.69L12.62 32.72L12.59 32.76L12.58 32.79L12.56 32.82L12.55 32.84L12.54 32.85L12.54 32.87L12.5 32.94L12.47 33.01L12.44 33.08L12.4 33.15L12.37 33.22L12.34 33.29L12.31 33.36L12.27 33.43L12.24 33.5L12.21 33.58L12.18 33.65L12.15 33.72L12.15 33.73L12.15 33.73L12.14 33.76L12.13 33.77L12.13 33.78L12.13 33.78L12.12 33.79L39.26 33.79L39.26 33.77L39.25 33.75L39.24 33.72L39.23 33.7L39.21 33.66L39.2 33.63L39.19 33.61L39.18 33.59L39.17 33.57L39.16 33.54L39.15 33.52L39.14 33.49L39.13 33.46L39.12 33.43L39.1 33.41L39.09 33.38L39.08 33.35L39.07 33.32L39.05 33.29L39.03 33.24L39.01 33.21L39 33.18L38.98 33.14L38.94 33.05L38.92 33.01L38.9 32.96L38.88 32.92L38.86 32.88L38.84 32.84L38.82 32.79L38.8 32.75L38.78 32.71L38.75 32.66L38.73 32.62L38.71 32.58L38.69 32.54L38.67 32.5L38.65 32.46L38.63 32.43L38.6 32.39L38.58 32.35L38.56 32.31L38.54 32.27L38.52 32.23L38.49 32.19L38.47 32.14L38.45 32.1L38.42 32.06L38.4 32.02L38.37 31.97L38.35 31.93L38.32 31.89L38.3 31.84L38.27 31.8L38.25 31.76L38.22 31.72L38.2 31.67L38.16 31.62L38.13 31.57L38.1 31.51L38.06 31.46L38.03 31.41L38 31.35L37.96 31.3L37.93 31.25L37.89 31.19L37.86 31.14L37.82 31.09L37.79 31.04L37.77 31.02L37.76 31L37.75 30.98L37.73 30.96L37.7 30.92L37.66 30.87L37.65 30.85L37.64 30.83L37.62 30.81L37.59 30.76L37.55 30.7L37.51 30.65L37.47 30.6L37.43 30.55L37.4 30.5L37.36 30.45L37.32 30.39L37.28 30.34L37.24 30.29L37.2 30.24L37.15 30.18L37.14 30.17L37.12 30.14L37.08 30.1L37.07 30.08L37.05 30.05L37.04 30.04L37.03 30.03L36.98 29.97L36.93 29.91L36.88 29.85L36.83 29.79L36.78 29.73L36.73 29.67L36.68 29.61L36.62 29.56L36.57 29.5L36.52 29.44L36.47 29.38L36.42 29.33L36.41 29.32L36.4 29.31L36.38 29.29L36.2 29.1L36.02 28.91L35.83 28.73L35.64 28.55L35.44 28.38L35.25 28.2L35.05 28.03L34.84 27.87L34.64 27.71L34.43 27.55L34.22 27.39L34 27.24L33.99 27.23L33.98 27.23L33.97 27.22L33.93 27.2L33.91 27.18L33.9 27.18L33.89 27.17L33.88 27.16L33.87 27.16L33.8 27.11L33.74 27.07L33.67 27.02L33.61 26.98L33.54 26.94L33.47 26.9L33.41 26.85L33.34 26.81L33.27 26.77L33.21 26.73L33.14 26.69L33.07 26.65L33.05 26.64L33.04 26.63L33.02 26.62L32.49 26.33L31.95 26.06L31.4 25.82L30.84 25.59L30.26 25.39L29.68 25.21L29.09 25.06L28.48 24.93L27.87 24.83L27.25 24.75L26.62 24.69L25.98 24.67L25.96 24.67L25.94 24.67L25.91 24.67L25.89 24.66L25.84 24.66L25.82 24.66L25.79 24.66L25.77 24.66L25.75 24.66L25.72 24.66L25.7 24.66L25.61 24.66L25.53 24.66Z" id="h2y1boIKqu"></path><path d="M117.36 48.15C121.06 48.15 123.66 46.23 123.66 42.82C123.66 42.82 123.66 42.78 123.66 42.77C123.66 39.78 121.7 38.53 118.22 37.62C115.25 36.86 114.51 36.49 114.51 35.37C114.51 35.36 114.51 35.32 114.51 35.32C114.51 34.48 115.28 33.82 116.72 33.82C118.17 33.82 119.67 34.46 121.19 35.51C121.38 35.23 122.95 32.95 123.15 32.67C121.41 31.27 119.27 30.48 116.77 30.48C113.26 30.48 110.76 32.54 110.76 35.66C110.76 35.66 110.76 35.7 110.76 35.71C110.76 39.12 112.99 40.08 116.45 40.96C119.32 41.69 119.91 42.18 119.91 43.14C119.91 43.15 119.91 43.19 119.91 43.19C119.91 44.2 118.98 44.81 117.43 44.81C115.47 44.81 113.85 44 112.31 42.72C112.08 42.99 110.3 45.13 110.07 45.4C112.14 47.24 114.76 48.15 117.36 48.15" id="bAYLvAmRW"></path><path d="M126.95 47.9L130.73 47.9L130.73 41.01L137.69 41.01L137.69 47.9L141.47 47.9L141.47 30.73L137.69 30.73L137.69 37.52L130.73 37.52L130.73 30.73L126.95 30.73L126.95 47.9" id="f21Qy9KxGO"></path><path d="M156.71 30.81L157.93 31.26L159.06 31.86L160.06 32.6L160.94 33.47L161.68 34.46L162.28 35.54L162.72 36.71L162.99 37.96L163.08 39.27L163.08 39.31L162.99 40.62L162.71 41.87L162.27 43.05L161.67 44.14L160.92 45.13L160.03 46.01L159.02 46.76L157.89 47.37L156.66 47.82L155.34 48.1L153.93 48.19L152.53 48.1L151.2 47.82L149.98 47.37L148.86 46.77L147.85 46.03L146.97 45.16L146.23 44.17L145.63 43.09L145.19 41.92L144.92 40.67L144.83 39.36L144.83 39.31L144.93 38.01L145.2 36.76L145.64 35.58L146.24 34.49L146.99 33.5L147.88 32.62L148.89 31.87L150.02 31.26L151.25 30.81L152.57 30.53L153.98 30.44L155.39 30.53L156.71 30.81ZM151.24 34.65L150.22 35.49L149.44 36.57L148.95 37.85L148.78 39.27L148.78 39.31L148.95 40.74L149.45 42.02L150.24 43.12L151.28 43.97L152.54 44.52L153.98 44.71L155.42 44.52L156.67 43.98L157.7 43.14L158.47 42.06L158.96 40.78L159.13 39.36L159.13 39.31L158.96 37.89L158.46 36.61L157.67 35.51L156.63 34.66L155.37 34.11L153.93 33.92L152.49 34.11L151.24 34.65Z" id="d2nW8OLKE"></path><path d="M175.52 30.96L176.43 31.24L177.24 31.63L177.96 32.11L178.58 32.68L179.09 33.33L179.49 34.06L179.79 34.87L179.97 35.74L180.03 36.67L180.03 36.71L179.96 37.75L179.74 38.69L179.39 39.54L178.92 40.28L178.33 40.93L177.65 41.49L176.88 41.94L176.02 42.29L175.1 42.55L174.12 42.7L173.09 42.75L170.22 42.75L170.22 47.9L166.44 47.9L166.44 30.73L173.46 30.73L174.53 30.79L175.52 30.96ZM170.22 39.39L173.21 39.39L174.48 39.19L175.42 38.64L176 37.82L176.2 36.79L176.2 36.74L175.99 35.62L175.38 34.8L174.41 34.31L173.14 34.14L170.22 34.14L170.22 39.39Z" id="cIM4TvTlK"></path></defs><g><g><use xlink:href="#fIRg4T7H0" opacity="1" fill="#e81456" fill-opacity="1"></use><g><use xlink:href="#fIRg4T7H0" opacity="1" fill-opacity="0" stroke="#000000" stroke-width="1" stroke-opacity="0"></use></g></g><g><use xlink:href="#h2y1boIKqu" opacity="1" fill="#e81456" fill-opacity="1"></use><g><use xlink:href="#h2y1boIKqu" opacity="1" fill-opacity="0" stroke="#000000" stroke-width="1" stroke-opacity="0"></use></g></g><g><use xlink:href="#bAYLvAmRW" opacity="1" fill="#454142" fill-opacity="1"></use><g><use xlink:href="#bAYLvAmRW" opacity="1" fill-opacity="0" stroke="#000000" stroke-width="1" stroke-opacity="0"></use></g></g><g><use xlink:href="#f21Qy9KxGO" opacity="1" fill="#454142" fill-opacity="1"></use><g><use xlink:href="#f21Qy9KxGO" opacity="1" fill-opacity="0" stroke="#000000" stroke-width="1" stroke-opacity="0"></use></g></g><g><use xlink:href="#d2nW8OLKE" opacity="1" fill="#454142" fill-opacity="1"></use><g><use xlink:href="#d2nW8OLKE" opacity="1" fill-opacity="0" stroke="#000000" stroke-width="1" stroke-opacity="0"></use></g></g><g><use xlink:href="#cIM4TvTlK" opacity="1" fill="#454142" fill-opacity="1"></use><g><use xlink:href="#cIM4TvTlK" opacity="1" fill-opacity="0" stroke="#000000" stroke-width="1" stroke-opacity="0"></use></g></g></g></svg>